<?xml version="1.0" encoding="utf-8"?>
<!-- Generator: Adobe Illustrator 23.0.1, SVG Export Plug-In . SVG Version: 6.00 Build 0)  -->
<svg version="1.1" xmlns="http://www.w3.org/2000/svg" xmlns:xlink="http://www.w3.org/1999/xlink" x="0px" y="0px"
	 viewBox="0 0 512 512" style="enable-background:new 0 0 512 512;" xml:space="preserve">
<style type="text/css">
	.st0{fill:#ffffff;}
	.st1{fill:none;stroke:#ffffff;stroke-width:32;stroke-linecap:round;stroke-linejoin:round;stroke-miterlimit:10;}
</style>
<g id="Layer_1">
</g>
<g id="Layer_2">
	<g>
		<g>
			<path class="st0" d="M366.48,313.14C366.48,313.14,366.48,313.14,366.48,313.14l-32.18-32.17c0.51-0.83,1-1.68,1.49-2.52
				c13.33-23.05,20.97-49.8,20.97-78.33c0-86.5-70.14-156.62-156.64-156.62S43.5,113.62,43.5,200.12s70.12,156.64,156.62,156.64
				c28.53,0,55.28-7.64,78.33-20.97c0.84-0.49,1.69-0.98,2.52-1.49l32.18,32.18L366.48,313.14z M226.32,283.67
				c-8.28,2.6-17.07,3.99-26.2,3.99c-48.33,0-87.53-39.19-87.53-87.54c0-48.33,39.2-87.53,87.53-87.53
				c48.35,0,87.54,39.2,87.54,87.53c0,9.13-1.39,17.92-3.99,26.2C275.13,253.6,253.6,275.13,226.32,283.67z"/>
		</g>
		<g>
			<path class="st0" d="M457.46,404.12l-68.35-68.35l-53.33,53.34c0,0,0,0,0,0l68.34,68.34c14.72,14.73,38.61,14.73,53.34,0.01
				C472.18,442.73,472.18,418.84,457.46,404.12z"/>
		</g>
	</g>
</g>
</svg>
